<?xml version="1.0" encoding="utf-8"?>
<!-- Generator: Adobe Illustrator 21.0.0, SVG Export Plug-In . SVG Version: 6.00 Build 0)  -->
<svg version="1.1" id="Capa_1" xmlns="http://www.w3.org/2000/svg" xmlns:xlink="http://www.w3.org/1999/xlink" x="0px" y="0px"
	 viewBox="0 0 389.1 389.1" style="enable-background:new 0 0 389.1 389.1;" xml:space="preserve">
<style type="text/css">
	.st0{fill:#FFFFFF;}
	.st1{fill:#692F5F;}
	.st2{fill:#A6DEF8;}
	.st3{fill:#FBDD6D;}
	.st4{fill:#D0605E;}
</style>
<polyline class="st0" points="214.3,170.7 300.4,170.7 300.4,341.3 6.8,341.3 6.8,170.7 158.3,170.7 "/>
<path class="st1" d="M300.4,348.2H6.8c-3.8,0-6.8-3.1-6.8-6.8V170.7c0-3.8,3.1-6.8,6.8-6.8h151.5c3.8,0,6.8,3.1,6.8,6.8
	s-3.1,6.8-6.8,6.8H13.7v157h279.9v-157h-79.2c-3.8,0-6.8-3.1-6.8-6.8s3.1-6.8,6.8-6.8h86.1c3.8,0,6.8,3.1,6.8,6.8v170.7
	C307.2,345.1,304.1,348.2,300.4,348.2z"/>
<rect x="6.8" y="341.3" class="st2" width="293.5" height="27.3"/>
<path class="st1" d="M300.4,375.5H6.8c-3.8,0-6.8-3.1-6.8-6.8v-27.3c0-3.8,3.1-6.8,6.8-6.8h293.5c3.8,0,6.8,3.1,6.8,6.8v27.3
	C307.2,372.4,304.1,375.5,300.4,375.5z M13.7,361.8h279.9v-13.7H13.7V361.8z"/>
<rect x="13.7" y="232.1" class="st3" width="177.5" height="81.9"/>
<rect x="191.1" y="355" class="st4" width="191.1" height="27.3"/>
<path class="st1" d="M382.3,389.1H191.1c-3.8,0-6.8-3.1-6.8-6.8V355c0-3.8,3.1-6.8,6.8-6.8h191.1c3.8,0,6.8,3.1,6.8,6.8v27.3
	C389.1,386.1,386.1,389.1,382.3,389.1z M198,375.5h177.5v-13.7H198V375.5z"/>
<rect x="191.1" y="54.6" class="st0" width="191.1" height="300.4"/>
<g>
	<path class="st1" d="M389.1,361.8H184.3v-314h204.8V361.8z M198,348.2h177.5V61.4H198V348.2z"/>
	<path class="st1" d="M143.3,286.7h-13.5c-18.9,0-34.2-15.3-34.2-34.2v-47.7c0-3.8,3.1-6.8,6.8-6.8s6.8,3.1,6.8,6.8v47.7
		c0,11.3,9.2,20.6,20.6,20.6h13.5c11.3,0,20.6-9.2,20.6-20.6v-47.7c0-3.8,3.1-6.8,6.8-6.8s6.8,3.1,6.8,6.8v47.7
		C177.5,271.4,162.1,286.7,143.3,286.7z"/>
	<path class="st1" d="M320.9,88.7c-3.8,0-6.8-3.1-6.8-6.8V34.2c0-11.3-9.2-20.6-20.6-20.6H280c-11.3,0-20.6,9.2-20.6,20.6v47.7
		c0,3.8-3.1,6.8-6.8,6.8s-6.8-3.1-6.8-6.8V34.2C245.8,15.3,261.1,0,280,0h13.5c18.9,0,34.2,15.3,34.2,34.2v47.7
		C327.7,85.7,324.6,88.7,320.9,88.7z"/>
</g>
<rect x="198" y="170.7" class="st2" width="177.5" height="109.2"/>
</svg>
