<?xml version="1.0" encoding="utf-8"?>
<!-- Generator: Adobe Illustrator 21.0.0, SVG Export Plug-In . SVG Version: 6.00 Build 0)  -->
<svg version="1.1" id="Слой_1" xmlns="http://www.w3.org/2000/svg" xmlns:xlink="http://www.w3.org/1999/xlink" x="0px" y="0px"
	 viewBox="0 0 273.4 121.7" style="enable-background:new 0 0 273.4 121.7;" xml:space="preserve">
<style type="text/css">
	.st0{fill:#FFFFFF;}
</style>
<g>
	<g>
		<g>
			<g>
				<path class="st0" d="M153.4,64.9v-1.4h20.8v1.4h-9.6v25.7H163V64.9H153.4z"/>
				<path class="st0" d="M186.7,63.5h1.7v12.3h17.3V63.5h1.7v27.1h-1.7V77.2h-17.3v13.4h-1.7V63.5z"/>
				<path class="st0" d="M230.8,63.5h1.8l10.7,27.1h-1.8l-3.4-8.7h-13l-3.5,8.7h-1.8L230.8,63.5z M237.6,80.4L231.8,65h-0.1l-6,15.4
					H237.6z"/>
				<path class="st0" d="M255.8,63.5h1.7v27.1h-1.7V63.5z"/>
			</g>
			<g>
				<circle class="st0" cx="253.4" cy="60" r="1.1"/>
			</g>
			<g>
				<circle class="st0" cx="259.9" cy="60" r="1.1"/>
			</g>
		</g>
	</g>
	<g>
		<path class="st0" d="M107.3,107.4h-3.4c-48.3-1.6-70.8-27.6-81.1-49.1c-11.2-23.3-11-46.5-11-46.7c0-0.3,0.2-0.6,0.6-0.7
			c0.3-0.1,0.7,0.1,0.8,0.3s12.5,19.4,77.1,20.5c36.7,0.6,65.8,12.8,72.9,24.2l-1.3,0.8c-6.8-11.1-35.5-22.9-71.6-23.5
			c-54.7-1-72.3-14.5-77-19.5C13.5,20,15,38.8,24.1,57.6c10.2,21.1,32.3,46.6,79.8,48.2h3.4V107.4z"/>
	</g>
	<g>
		<path class="st0" d="M120.5,106c0-0.1,0-0.2,0-0.3s0-0.3,0-0.4s0-0.2,0-0.4s0-0.2,0-0.3h0.6c0,0.2,0,0.3,0,0.5s0,0.3,0,0.3l0,0
			c0.1-0.3,0.3-0.5,0.6-0.7c0.3-0.2,0.6-0.3,1-0.3s0.7,0.1,0.9,0.2c0.2,0.1,0.4,0.3,0.5,0.5s0.2,0.4,0.3,0.6
			c0.1,0.2,0.1,0.5,0.1,0.8v2.8h-0.6v-2.8c0-0.2,0-0.4-0.1-0.6c0-0.2-0.1-0.3-0.2-0.5s-0.2-0.3-0.4-0.3c-0.2-0.1-0.4-0.1-0.6-0.1
			s-0.4,0-0.6,0.1s-0.4,0.2-0.5,0.4c-0.1,0.2-0.3,0.4-0.3,0.6s-0.1,0.5-0.1,0.9v2.4h-0.6C120.5,109.4,120.5,106,120.5,106z"/>
		<path class="st0" d="M131.3,107.4c0,0.2,0,0.4,0,0.6s0,0.4,0,0.5s0,0.3,0,0.4s0,0.3,0,0.4h-0.6c0-0.2-0.1-0.5-0.1-0.8l0,0
			c-0.2,0.3-0.4,0.5-0.7,0.7s-0.6,0.2-1,0.2c-0.2,0-0.4,0-0.6-0.1s-0.4-0.1-0.5-0.2c-0.2-0.1-0.3-0.3-0.4-0.4s-0.1-0.4-0.1-0.6
			c0-0.4,0.1-0.6,0.3-0.9s0.4-0.4,0.7-0.5c0.3-0.1,0.6-0.2,0.9-0.2s0.6,0,0.8,0h0.7v-0.3c0-0.4-0.1-0.7-0.4-0.9
			c-0.3-0.2-0.6-0.3-0.9-0.3c-0.5,0-1,0.2-1.4,0.5l-0.4-0.4c0.2-0.2,0.5-0.4,0.8-0.5s0.7-0.2,1-0.2c0.6,0,1,0.1,1.4,0.4
			s0.5,0.7,0.5,1.3L131.3,107.4L131.3,107.4z M130.1,107.1c-0.3,0-0.5,0-0.8,0.1c-0.2,0-0.5,0.1-0.7,0.2s-0.3,0.2-0.5,0.3
			c-0.1,0.1-0.2,0.3-0.2,0.5c0,0.1,0,0.3,0.1,0.4s0.1,0.2,0.2,0.3c0.1,0.1,0.2,0.1,0.3,0.2s0.3,0.1,0.4,0.1c0.3,0,0.6,0,0.8-0.1
			s0.4-0.2,0.5-0.4c0.1-0.2,0.2-0.3,0.3-0.5c0-0.2,0.1-0.4,0.1-0.6v-0.3h-0.5V107.1z"/>
		<path class="st0" d="M136.7,105.3h-1.3v3.1c0,0.2,0.1,0.4,0.2,0.5c0.1,0.1,0.3,0.2,0.5,0.2c0.1,0,0.2,0,0.4,0
			c0.1,0,0.2-0.1,0.3-0.1l0.1,0.6c-0.1,0-0.2,0.1-0.4,0.1s-0.3,0.1-0.4,0.1c-0.2,0-0.4,0-0.6-0.1c-0.2-0.1-0.3-0.2-0.4-0.3
			c-0.1-0.1-0.2-0.2-0.2-0.4c0-0.1-0.1-0.3-0.1-0.5v-3.1h-1v-0.6h1v-1.4h0.6v1.4h1.3L136.7,105.3L136.7,105.3z"/>
		<path class="st0" d="M143.3,108.1c0,0.1,0,0.2,0,0.3s0,0.3,0,0.4s0,0.2,0,0.4s0,0.2,0,0.3h-0.6c0-0.2,0-0.3,0-0.5s0-0.3,0-0.3l0,0
			c-0.1,0.3-0.3,0.5-0.6,0.7s-0.6,0.3-1,0.3s-0.7-0.1-0.9-0.2s-0.4-0.3-0.6-0.5c-0.1-0.2-0.2-0.4-0.3-0.6c0-0.2-0.1-0.5-0.1-0.8
			v-2.8h0.6v2.8c0,0.2,0,0.4,0.1,0.6c0,0.2,0.1,0.3,0.2,0.5s0.2,0.3,0.4,0.3s0.4,0.1,0.6,0.1c0.2,0,0.4,0,0.6-0.1s0.4-0.2,0.5-0.4
			c0.1-0.2,0.3-0.4,0.3-0.6c0.1-0.2,0.1-0.5,0.1-0.9v-2.4h0.6L143.3,108.1L143.3,108.1z"/>
		<path class="st0" d="M146.5,106c0-0.1,0-0.2,0-0.3s0-0.3,0-0.4s0-0.2,0-0.4s0-0.2,0-0.3h0.6c0,0.2,0,0.3,0,0.5s0,0.3,0,0.3
			c0.2-0.3,0.4-0.5,0.6-0.7c0.2-0.2,0.5-0.3,0.9-0.3c0.1,0,0.1,0,0.2,0c0.1,0,0.1,0,0.2,0l-0.1,0.6c-0.1,0-0.2,0-0.2,0
			c-0.3,0-0.5,0-0.7,0.1s-0.4,0.2-0.5,0.4s-0.2,0.3-0.3,0.5s-0.1,0.4-0.1,0.6v2.6h-0.6L146.5,106L146.5,106z"/>
		<path class="st0" d="M155,107.4c0,0.2,0,0.4,0,0.6s0,0.4,0,0.5s0,0.3,0,0.4s0,0.3,0,0.4h-0.6c0-0.2-0.1-0.5-0.1-0.8l0,0
			c-0.2,0.3-0.4,0.5-0.7,0.7s-0.6,0.2-1,0.2c-0.2,0-0.4,0-0.6-0.1s-0.4-0.1-0.5-0.2c-0.2-0.1-0.3-0.3-0.4-0.4s-0.1-0.4-0.1-0.6
			c0-0.4,0.1-0.6,0.3-0.9s0.4-0.4,0.7-0.5s0.6-0.2,0.9-0.2s0.6,0,0.8,0h0.7v-0.3c0-0.4-0.1-0.7-0.4-0.9c-0.3-0.2-0.6-0.3-0.9-0.3
			c-0.5,0-1,0.2-1.4,0.5l-0.4-0.4c0.2-0.2,0.5-0.4,0.8-0.5s0.7-0.2,1-0.2c0.6,0,1,0.1,1.4,0.4s0.5,0.7,0.5,1.3V107.4z M153.8,107.1
			c-0.3,0-0.5,0-0.8,0.1c-0.2,0-0.5,0.1-0.7,0.2s-0.3,0.2-0.5,0.3c-0.1,0.1-0.2,0.3-0.2,0.5c0,0.1,0,0.3,0.1,0.4s0.1,0.2,0.2,0.3
			c0.1,0.1,0.2,0.1,0.3,0.2s0.3,0.1,0.4,0.1c0.3,0,0.6,0,0.8-0.1s0.4-0.2,0.5-0.4c0.1-0.2,0.2-0.3,0.3-0.5c0-0.2,0.1-0.4,0.1-0.6
			v-0.3h-0.5V107.1z"/>
		<path class="st0" d="M158.2,101.7h0.6v7.7h-0.6V101.7z"/>
		<path class="st0" d="M166.2,108.2c0.1,0.3,0.3,0.4,0.6,0.6s0.5,0.2,0.8,0.2c0.1,0,0.3,0,0.4-0.1s0.2-0.1,0.3-0.2s0.2-0.2,0.2-0.3
			s0.1-0.2,0.1-0.4c0-0.2-0.1-0.4-0.2-0.5c-0.1-0.1-0.3-0.2-0.5-0.3s-0.4-0.1-0.7-0.2c-0.2,0-0.5-0.1-0.7-0.2s-0.4-0.2-0.5-0.4
			s-0.2-0.4-0.2-0.7c0-0.2,0-0.4,0.1-0.6s0.2-0.3,0.4-0.4s0.3-0.2,0.5-0.2s0.4-0.1,0.6-0.1c0.4,0,0.7,0.1,1,0.2s0.5,0.4,0.7,0.7
			l-0.6,0.3c-0.1-0.2-0.3-0.4-0.4-0.5c-0.2-0.1-0.4-0.2-0.7-0.2c-0.1,0-0.2,0-0.3,0.1c-0.1,0-0.2,0.1-0.3,0.1
			c-0.1,0.1-0.2,0.1-0.2,0.2c-0.1,0.1-0.1,0.2-0.1,0.3c0,0.2,0.1,0.4,0.2,0.5c0.1,0.1,0.3,0.2,0.5,0.2s0.4,0.1,0.7,0.1
			s0.5,0.1,0.7,0.2s0.4,0.2,0.5,0.4c0.1,0.2,0.2,0.4,0.2,0.7c0,0.2,0,0.5-0.1,0.6c-0.1,0.2-0.2,0.3-0.4,0.5
			c-0.2,0.1-0.3,0.2-0.5,0.3c-0.2,0.1-0.4,0.1-0.6,0.1c-0.4,0-0.8-0.1-1.1-0.2c-0.3-0.2-0.6-0.4-0.8-0.7L166.2,108.2z"/>
		<path class="st0" d="M171.9,104.7h0.6v0.8l0,0c0.1-0.2,0.2-0.3,0.4-0.4c0.1-0.1,0.3-0.2,0.5-0.3c0.2-0.1,0.3-0.1,0.5-0.2
			s0.4-0.1,0.5-0.1c0.4,0,0.7,0.1,1,0.2s0.6,0.3,0.8,0.5s0.4,0.5,0.5,0.8s0.2,0.6,0.2,1s-0.1,0.7-0.2,1s-0.3,0.6-0.5,0.8
			c-0.2,0.2-0.5,0.4-0.8,0.5s-0.6,0.2-1,0.2c-0.2,0-0.4,0-0.5-0.1s-0.4-0.1-0.5-0.2c-0.2-0.1-0.3-0.2-0.5-0.3
			c-0.1-0.1-0.3-0.3-0.4-0.4l0,0v3.2h-0.6V104.7z M172.5,107.1c0,0.3,0.1,0.5,0.2,0.8c0.1,0.2,0.2,0.4,0.4,0.6s0.4,0.3,0.6,0.4
			c0.2,0.1,0.5,0.2,0.8,0.2s0.5-0.1,0.8-0.2c0.2-0.1,0.4-0.2,0.6-0.4c0.2-0.2,0.3-0.4,0.4-0.6c0.1-0.2,0.1-0.5,0.1-0.8
			s0-0.5-0.1-0.8c-0.1-0.2-0.2-0.4-0.4-0.6s-0.4-0.3-0.6-0.4c-0.2-0.1-0.5-0.2-0.8-0.2s-0.5,0.1-0.8,0.2c-0.2,0.1-0.4,0.2-0.6,0.4
			c-0.2,0.2-0.3,0.4-0.4,0.6C172.5,106.5,172.5,106.8,172.5,107.1z"/>
		<path class="st0" d="M183.4,107.4c0,0.2,0,0.4,0,0.6s0,0.4,0,0.5s0,0.3,0,0.4s0,0.3,0,0.4h-0.6c0-0.2-0.1-0.5-0.1-0.8l0,0
			c-0.2,0.3-0.4,0.5-0.7,0.7s-0.6,0.2-1,0.2c-0.2,0-0.4,0-0.6-0.1s-0.4-0.1-0.5-0.2c-0.2-0.1-0.3-0.3-0.4-0.4s-0.1-0.4-0.1-0.6
			c0-0.4,0.1-0.6,0.3-0.9s0.4-0.4,0.7-0.5s0.6-0.2,0.9-0.2s0.6,0,0.8,0h0.7v-0.3c0-0.4-0.1-0.7-0.4-0.9c-0.3-0.2-0.6-0.3-0.9-0.3
			c-0.5,0-1,0.2-1.4,0.5l-0.4-0.4c0.2-0.2,0.5-0.4,0.8-0.5s0.7-0.2,1-0.2c0.6,0,1,0.1,1.4,0.4s0.5,0.7,0.5,1.3V107.4z M182.2,107.1
			c-0.3,0-0.5,0-0.8,0.1c-0.2,0-0.5,0.1-0.7,0.2s-0.3,0.2-0.5,0.3c-0.1,0.1-0.2,0.3-0.2,0.5c0,0.1,0,0.3,0.1,0.4s0.1,0.2,0.2,0.3
			c0.1,0.1,0.2,0.1,0.3,0.2s0.3,0.1,0.4,0.1c0.3,0,0.6,0,0.8-0.1s0.4-0.2,0.5-0.4c0.1-0.2,0.2-0.3,0.3-0.5c0-0.2,0.1-0.4,0.1-0.6
			v-0.3h-0.5V107.1z"/>
		<path class="st0" d="M194.8,107.3l1-1.9h0.7l-1.3,2.3l1.6,1.7H196l-1.1-1.2c-0.3,0.4-0.6,0.7-1,0.9s-0.8,0.4-1.3,0.4
			c-0.3,0-0.6,0-0.9-0.1s-0.5-0.2-0.7-0.4c-0.2-0.2-0.4-0.4-0.5-0.7c-0.1-0.3-0.2-0.5-0.2-0.9c0-0.3,0-0.5,0.1-0.7s0.2-0.4,0.4-0.6
			s0.3-0.3,0.5-0.4s0.4-0.3,0.6-0.4c-0.1-0.1-0.2-0.2-0.3-0.4s-0.2-0.3-0.3-0.4s-0.1-0.3-0.2-0.4c-0.1-0.2-0.1-0.3-0.1-0.5
			c0-0.3,0-0.5,0.1-0.7s0.2-0.4,0.4-0.5s0.4-0.2,0.6-0.3c0.2-0.1,0.5-0.1,0.7-0.1s0.4,0,0.6,0.1c0.2,0.1,0.4,0.2,0.5,0.3
			c0.2,0.1,0.3,0.3,0.4,0.5c0.1,0.2,0.1,0.4,0.1,0.6c0,0.3,0,0.5-0.1,0.7s-0.2,0.4-0.4,0.5s-0.3,0.3-0.5,0.4s-0.4,0.2-0.6,0.3
			L194.8,107.3z M192.5,105.8c-0.2,0.1-0.3,0.2-0.5,0.3c-0.2,0.1-0.3,0.2-0.4,0.4c-0.1,0.1-0.2,0.3-0.3,0.4
			c-0.1,0.2-0.1,0.4-0.1,0.6s0,0.4,0.1,0.6s0.2,0.3,0.3,0.5c0.1,0.1,0.3,0.2,0.5,0.3c0.2,0.1,0.4,0.1,0.6,0.1c0.2,0,0.4,0,0.5-0.1
			c0.2-0.1,0.3-0.1,0.5-0.2c0.1-0.1,0.3-0.2,0.4-0.4c0.1-0.1,0.2-0.3,0.3-0.4L192.5,105.8z M193,102.6c-0.3,0-0.6,0.1-0.8,0.3
			c-0.2,0.2-0.3,0.4-0.3,0.7c0,0.1,0,0.2,0.1,0.4s0.1,0.3,0.2,0.4c0.1,0.1,0.2,0.2,0.3,0.3c0.1,0.1,0.2,0.2,0.2,0.3
			c0.1-0.1,0.3-0.2,0.4-0.2c0.2-0.1,0.3-0.2,0.4-0.3c0.1-0.1,0.2-0.2,0.3-0.4s0.1-0.3,0.1-0.5c0-0.3-0.1-0.5-0.3-0.7
			C193.5,102.7,193.3,102.6,193,102.6z"/>
		<path class="st0" d="M207.4,108.7c-0.2,0.3-0.5,0.5-0.8,0.6s-0.6,0.2-0.9,0.2c-0.4,0-0.7-0.1-1-0.2s-0.6-0.3-0.8-0.5
			s-0.4-0.5-0.5-0.8s-0.2-0.6-0.2-1s0.1-0.7,0.2-1c0.1-0.3,0.3-0.6,0.5-0.8c0.2-0.2,0.5-0.4,0.8-0.5s0.6-0.2,1-0.2
			c0.3,0,0.7,0.1,1,0.2s0.6,0.3,0.8,0.6l-0.5,0.4c-0.2-0.2-0.4-0.4-0.6-0.5c-0.2-0.1-0.4-0.2-0.7-0.2s-0.5,0.1-0.8,0.2
			c-0.2,0.1-0.4,0.2-0.6,0.4c-0.2,0.2-0.3,0.4-0.4,0.6c-0.1,0.2-0.1,0.5-0.1,0.8s0,0.5,0.1,0.8c0.1,0.2,0.2,0.4,0.4,0.6
			s0.4,0.3,0.6,0.4c0.2,0.1,0.5,0.2,0.8,0.2s0.5-0.1,0.7-0.2s0.4-0.3,0.6-0.5L207.4,108.7z"/>
		<path class="st0" d="M209.6,107.1c0-0.4,0.1-0.7,0.2-1c0.1-0.3,0.3-0.6,0.5-0.8c0.2-0.2,0.5-0.4,0.8-0.5s0.6-0.2,1-0.2
			s0.7,0.1,1,0.2s0.6,0.3,0.8,0.5s0.4,0.5,0.5,0.8s0.2,0.6,0.2,1s-0.1,0.7-0.2,1c-0.1,0.3-0.3,0.6-0.5,0.8c-0.2,0.2-0.5,0.4-0.8,0.5
			s-0.6,0.2-1,0.2s-0.7-0.1-1-0.2s-0.6-0.3-0.8-0.5s-0.4-0.5-0.5-0.8C209.7,107.8,209.6,107.4,209.6,107.1z M210.2,107.1
			c0,0.3,0,0.5,0.1,0.8c0.1,0.2,0.2,0.4,0.4,0.6s0.4,0.3,0.6,0.4c0.2,0.1,0.5,0.2,0.8,0.2s0.5-0.1,0.8-0.2c0.2-0.1,0.4-0.2,0.6-0.4
			c0.2-0.2,0.3-0.4,0.4-0.6s0.1-0.5,0.1-0.8s0-0.5-0.1-0.8s-0.2-0.4-0.4-0.6s-0.4-0.3-0.6-0.4c-0.2-0.1-0.5-0.2-0.8-0.2
			s-0.5,0.1-0.8,0.2c-0.2,0.1-0.4,0.2-0.6,0.4c-0.2,0.2-0.3,0.4-0.4,0.6C210.3,106.5,210.2,106.8,210.2,107.1z"/>
		<path class="st0" d="M217.5,108.2c0.1,0.3,0.3,0.4,0.6,0.6s0.5,0.2,0.8,0.2c0.1,0,0.3,0,0.4-0.1s0.2-0.1,0.3-0.2s0.2-0.2,0.2-0.3
			s0.1-0.2,0.1-0.4c0-0.2-0.1-0.4-0.2-0.5c-0.1-0.1-0.3-0.2-0.5-0.3s-0.4-0.1-0.7-0.2c-0.2,0-0.5-0.1-0.7-0.2s-0.4-0.2-0.5-0.4
			s-0.2-0.4-0.2-0.7c0-0.2,0-0.4,0.1-0.6s0.2-0.3,0.4-0.4s0.3-0.2,0.5-0.2s0.4-0.1,0.6-0.1c0.4,0,0.7,0.1,1,0.2s0.5,0.4,0.7,0.7
			l-0.6,0.3c-0.1-0.2-0.3-0.4-0.4-0.5c-0.2-0.1-0.4-0.2-0.7-0.2c-0.1,0-0.2,0-0.3,0.1c-0.1,0-0.2,0.1-0.3,0.1
			c-0.1,0.1-0.2,0.1-0.2,0.2c-0.1,0.1-0.1,0.2-0.1,0.3c0,0.2,0.1,0.4,0.2,0.5c0.1,0.1,0.3,0.2,0.5,0.2s0.4,0.1,0.7,0.1
			s0.5,0.1,0.7,0.2s0.4,0.2,0.5,0.4c0.1,0.2,0.2,0.4,0.2,0.7c0,0.2,0,0.5-0.1,0.6c-0.1,0.2-0.2,0.3-0.4,0.5
			c-0.2,0.1-0.3,0.2-0.5,0.3c-0.2,0.1-0.4,0.1-0.6,0.1c-0.4,0-0.8-0.1-1.1-0.2c-0.3-0.2-0.6-0.4-0.8-0.7L217.5,108.2z"/>
		<path class="st0" d="M223.3,106c0-0.1,0-0.2,0-0.3s0-0.3,0-0.4s0-0.2,0-0.4s0-0.2,0-0.3h0.6c0,0.2,0,0.3,0,0.5s0,0.3,0,0.3l0,0
			c0.1-0.3,0.3-0.5,0.6-0.7s0.6-0.3,1-0.3c0.3,0,0.6,0.1,0.9,0.2c0.3,0.2,0.4,0.4,0.6,0.8c0.1-0.4,0.4-0.6,0.7-0.8
			c0.3-0.2,0.6-0.2,0.9-0.2c0.4,0,0.7,0.1,0.9,0.2s0.4,0.3,0.5,0.5s0.2,0.4,0.3,0.6s0.1,0.5,0.1,0.8v2.8h-0.6v-2.8
			c0-0.2,0-0.4-0.1-0.6c0-0.2-0.1-0.3-0.2-0.5s-0.2-0.3-0.4-0.3c-0.2-0.1-0.4-0.1-0.6-0.1c-0.3,0-0.5,0.1-0.7,0.2s-0.3,0.2-0.4,0.4
			c-0.1,0.2-0.2,0.3-0.2,0.5s-0.1,0.4-0.1,0.5v2.7h-0.6v-2.8c0-0.4-0.1-0.8-0.2-1.1c-0.2-0.3-0.4-0.4-0.7-0.4c-0.2,0-0.4,0-0.6,0.1
			c-0.2,0.1-0.4,0.2-0.5,0.4c-0.1,0.2-0.3,0.4-0.3,0.6s-0.1,0.5-0.1,0.9v2.4h-0.6V106H223.3z"/>
		<path class="st0" d="M237.6,108.5c-0.2,0.4-0.5,0.6-0.9,0.8c-0.3,0.2-0.7,0.2-1.2,0.2c-0.4,0-0.7-0.1-1-0.2s-0.5-0.3-0.8-0.5
			s-0.4-0.5-0.5-0.8s-0.2-0.6-0.2-1s0.1-0.7,0.2-1c0.1-0.3,0.3-0.6,0.5-0.8c0.2-0.2,0.5-0.4,0.7-0.5c0.3-0.1,0.6-0.2,0.9-0.2
			c0.4,0,0.7,0.1,1,0.2s0.5,0.3,0.7,0.5s0.3,0.4,0.4,0.7c0.1,0.3,0.1,0.5,0.1,0.8v0.4h-4c0,0.1,0,0.3,0.1,0.5s0.1,0.4,0.3,0.6
			c0.1,0.2,0.3,0.4,0.5,0.5s0.5,0.2,0.9,0.2c0.3,0,0.6-0.1,0.9-0.2c0.3-0.1,0.5-0.4,0.7-0.6L237.6,108.5z M237.2,106.7
			c0-0.2,0-0.4-0.1-0.6s-0.2-0.3-0.3-0.5c-0.1-0.1-0.3-0.2-0.5-0.3c-0.2-0.1-0.4-0.1-0.6-0.1c-0.3,0-0.6,0.1-0.8,0.2
			s-0.4,0.3-0.5,0.5s-0.2,0.3-0.3,0.5s-0.1,0.3-0.1,0.3H237.2z"/>
		<path class="st0" d="M242.9,105.3h-1.3v3.1c0,0.2,0.1,0.4,0.2,0.5c0.1,0.1,0.3,0.2,0.5,0.2c0.1,0,0.2,0,0.4,0
			c0.1,0,0.2-0.1,0.3-0.1l0.1,0.6c-0.1,0-0.2,0.1-0.4,0.1s-0.3,0.1-0.4,0.1c-0.2,0-0.4,0-0.6-0.1c-0.2-0.1-0.3-0.2-0.4-0.3
			c-0.1-0.1-0.2-0.2-0.2-0.4c0-0.1-0.1-0.3-0.1-0.5v-3.1h-1v-0.6h1v-1.4h0.6v1.4h1.3L242.9,105.3L242.9,105.3z"/>
		<path class="st0" d="M245.5,102.8c0-0.1,0-0.2,0.1-0.3c0.1-0.1,0.2-0.1,0.3-0.1s0.2,0,0.3,0.1s0.1,0.2,0.1,0.3s0,0.2-0.1,0.3
			c-0.1,0.1-0.2,0.1-0.3,0.1s-0.2,0-0.3-0.1C245.5,103.1,245.5,103,245.5,102.8z M245.6,104.7h0.6v4.7h-0.6V104.7z"/>
		<path class="st0" d="M253.4,108.7c-0.2,0.3-0.5,0.5-0.8,0.6s-0.6,0.2-0.9,0.2c-0.4,0-0.7-0.1-1-0.2s-0.6-0.3-0.8-0.5
			s-0.4-0.5-0.5-0.8s-0.2-0.6-0.2-1s0.1-0.7,0.2-1c0.1-0.3,0.3-0.6,0.5-0.8c0.2-0.2,0.5-0.4,0.8-0.5s0.6-0.2,1-0.2
			c0.3,0,0.7,0.1,1,0.2s0.6,0.3,0.8,0.6l-0.5,0.4c-0.2-0.2-0.4-0.4-0.6-0.5c-0.2-0.1-0.4-0.2-0.7-0.2s-0.5,0.1-0.8,0.2
			c-0.2,0.1-0.4,0.2-0.6,0.4c-0.2,0.2-0.3,0.4-0.4,0.6c-0.1,0.2-0.1,0.5-0.1,0.8s0,0.5,0.1,0.8c0.1,0.2,0.2,0.4,0.4,0.6
			s0.4,0.3,0.6,0.4c0.2,0.1,0.5,0.2,0.8,0.2s0.5-0.1,0.7-0.2s0.4-0.3,0.6-0.5L253.4,108.7z"/>
		<path class="st0" d="M255.9,108.2c0.1,0.3,0.3,0.4,0.6,0.6s0.5,0.2,0.8,0.2c0.1,0,0.3,0,0.4-0.1s0.2-0.1,0.3-0.2
			c0.1-0.1,0.2-0.2,0.2-0.3s0.1-0.2,0.1-0.4c0-0.2-0.1-0.4-0.2-0.5s-0.3-0.2-0.5-0.3s-0.4-0.1-0.7-0.2c-0.2,0-0.5-0.1-0.7-0.2
			s-0.4-0.2-0.5-0.4s-0.2-0.4-0.2-0.7c0-0.2,0-0.4,0.1-0.6s0.2-0.3,0.4-0.4s0.3-0.2,0.5-0.2s0.4-0.1,0.6-0.1c0.4,0,0.7,0.1,1,0.2
			s0.5,0.4,0.7,0.7l-0.6,0.3c-0.1-0.2-0.3-0.4-0.4-0.5c-0.2-0.1-0.4-0.2-0.7-0.2c-0.1,0-0.2,0-0.3,0.1c-0.1,0-0.2,0.1-0.3,0.1
			c-0.1,0.1-0.2,0.1-0.2,0.2c-0.1,0.1-0.1,0.2-0.1,0.3c0,0.2,0.1,0.4,0.2,0.5s0.3,0.2,0.5,0.2s0.4,0.1,0.7,0.1s0.5,0.1,0.7,0.2
			s0.4,0.2,0.5,0.4c0.1,0.2,0.2,0.4,0.2,0.7c0,0.2,0,0.5-0.1,0.6c-0.1,0.2-0.2,0.3-0.4,0.5c-0.2,0.1-0.3,0.2-0.5,0.3
			c-0.2,0.1-0.4,0.1-0.6,0.1c-0.4,0-0.8-0.1-1.1-0.2c-0.3-0.2-0.6-0.4-0.8-0.7L255.9,108.2z"/>
	</g>
	<g>
		<path class="st0" d="M101,74.4c-0.7,1-1.5,1.7-2.4,2.1s-2,0.6-3.2,0.6c-1,0-1.9-0.2-2.7-0.5c-0.8-0.3-1.5-0.8-2.1-1.4
			s-1-1.3-1.3-2.1c-0.3-0.8-0.5-1.7-0.5-2.7s0.2-1.9,0.5-2.7c0.3-0.8,0.8-1.5,1.3-2.1c0.6-0.6,1.3-1.1,2-1.4
			c0.8-0.3,1.6-0.5,2.6-0.5s1.9,0.2,2.6,0.5c0.8,0.3,1.4,0.8,1.9,1.4s0.9,1.2,1.2,1.9c0.3,0.7,0.4,1.5,0.4,2.2v1.2H90.5
			c0,0.4,0.1,0.8,0.2,1.4c0.1,0.5,0.4,1.1,0.8,1.6s0.9,1,1.5,1.3c0.6,0.4,1.4,0.6,2.4,0.6c0.9,0,1.7-0.2,2.5-0.6s1.4-1,1.8-1.7
			L101,74.4z M99.7,69.3c0-0.6-0.1-1.1-0.3-1.6c-0.2-0.5-0.5-0.9-0.9-1.3c-0.5-0.4-1-0.7-1.5-0.9s-1.1-0.3-1.7-0.3
			c-0.9,0-1.7,0.2-2.3,0.6c-0.6,0.4-1.1,0.8-1.4,1.3c-0.4,0.5-0.6,1-0.8,1.4c-0.1,0.5-0.2,0.8-0.2,0.9L99.7,69.3L99.7,69.3z"/>
		<path class="st0" d="M120,74.9c-0.6,0.8-1.3,1.3-2.1,1.7c-0.8,0.4-1.7,0.5-2.6,0.5c-1,0-1.9-0.2-2.7-0.5c-0.8-0.3-1.6-0.8-2.1-1.4
			c-0.6-0.6-1.1-1.3-1.4-2.1c-0.3-0.8-0.5-1.7-0.5-2.7s0.2-1.9,0.5-2.7c0.3-0.8,0.8-1.5,1.4-2.1s1.3-1.1,2.1-1.4s1.7-0.5,2.7-0.5
			c0.9,0,1.8,0.2,2.6,0.6c0.8,0.4,1.5,0.9,2.2,1.6l-1.3,1c-0.5-0.5-1-1-1.6-1.3s-1.2-0.5-1.9-0.5c-0.8,0-1.5,0.1-2.1,0.4
			s-1.2,0.7-1.6,1.1s-0.8,1-1,1.7c-0.2,0.6-0.3,1.3-0.3,2.1s0.1,1.4,0.3,2.1c0.2,0.6,0.6,1.2,1,1.7s1,0.9,1.6,1.1
			c0.6,0.3,1.3,0.4,2.1,0.4c0.7,0,1.4-0.2,1.9-0.5c0.6-0.3,1.1-0.8,1.5-1.3L120,74.9z"/>
		<path class="st0" d="M125.9,70.4c0-1,0.2-1.9,0.5-2.7c0.3-0.8,0.8-1.5,1.4-2.1c0.6-0.6,1.3-1.1,2.1-1.4s1.7-0.5,2.7-0.5
			s1.9,0.2,2.7,0.5c0.8,0.3,1.5,0.8,2.1,1.4s1.1,1.3,1.4,2.1s0.5,1.7,0.5,2.7s-0.2,1.9-0.5,2.7c-0.3,0.8-0.8,1.5-1.4,2.1
			c-0.6,0.6-1.3,1.1-2.1,1.4s-1.7,0.5-2.7,0.5s-1.9-0.2-2.7-0.5s-1.6-0.8-2.1-1.4c-0.6-0.6-1.1-1.3-1.4-2.1
			C126.1,72.3,125.9,71.4,125.9,70.4z M127.6,70.4c0,0.7,0.1,1.4,0.3,2.1c0.2,0.6,0.6,1.2,1,1.7s1,0.9,1.6,1.1
			c0.6,0.3,1.3,0.4,2.1,0.4s1.5-0.1,2.1-0.4s1.2-0.7,1.6-1.1c0.4-0.5,0.8-1,1-1.7c0.2-0.6,0.3-1.3,0.3-2.1s-0.1-1.4-0.3-2.1
			c-0.2-0.6-0.6-1.2-1-1.7s-1-0.9-1.6-1.1c-0.6-0.3-1.3-0.4-2.1-0.4s-1.5,0.1-2.1,0.4s-1.2,0.7-1.6,1.1s-0.8,1-1,1.7
			S127.6,69.7,127.6,70.4z"/>
	</g>
</g>
</svg>
